<mxfile host="app.diagrams.net" agent="Mozilla/5.0 (Windows NT 10.0; Win64; x64) AppleWebKit/537.36 (KHTML, like Gecko) Chrome/128.0.0.0 Safari/537.36 OPR/114.0.0.0" version="24.9.1">
  <diagram name="Página-1" id="q5sJ7SMmnI5SE294cbQs">
    <mxGraphModel grid="1" page="1" gridSize="10" guides="1" tooltips="1" connect="1" arrows="1" fold="1" pageScale="1" pageWidth="827" pageHeight="1169" math="0" shadow="0">
      <root>
        <mxCell id="0" />
        <mxCell id="1" parent="0" />
        <mxCell id="K9VHAz8Z8y00O2l8GgqR-96" style="edgeStyle=orthogonalEdgeStyle;rounded=0;orthogonalLoop=1;jettySize=auto;html=1;entryX=0.5;entryY=0;entryDx=0;entryDy=0;" edge="1" parent="1" source="HwzYQzNSdAflET0h8osi-1" target="zI43d2FHKdrEC87unYx5-31">
          <mxGeometry relative="1" as="geometry" />
        </mxCell>
        <mxCell id="geauqjZHRdObFVSJ-sEf-1" style="edgeStyle=orthogonalEdgeStyle;rounded=0;orthogonalLoop=1;jettySize=auto;html=1;entryX=0.5;entryY=0;entryDx=0;entryDy=0;" edge="1" parent="1" source="HwzYQzNSdAflET0h8osi-1" target="zI43d2FHKdrEC87unYx5-30">
          <mxGeometry relative="1" as="geometry">
            <Array as="points">
              <mxPoint x="278" y="90" />
              <mxPoint x="-659" y="90" />
            </Array>
          </mxGeometry>
        </mxCell>
        <mxCell id="7QkryRCTY_poe_iIpccH-8" style="edgeStyle=orthogonalEdgeStyle;rounded=0;orthogonalLoop=1;jettySize=auto;html=1;entryX=0.5;entryY=0;entryDx=0;entryDy=0;" edge="1" parent="1" source="HwzYQzNSdAflET0h8osi-1" target="eFpd0V_BJ993Bv4dlYoM-20">
          <mxGeometry relative="1" as="geometry">
            <mxPoint x="1385.3529411764705" y="120" as="targetPoint" />
            <Array as="points">
              <mxPoint x="278" y="90" />
              <mxPoint x="1328" y="90" />
            </Array>
          </mxGeometry>
        </mxCell>
        <mxCell id="HwzYQzNSdAflET0h8osi-1" value="Juguetes de plástico fabricados" style="rounded=1;whiteSpace=wrap;html=1;fillColor=#FFFF33;strokeColor=#000000;fontStyle=1;labelBorderColor=none;arcSize=22;" vertex="1" parent="1">
          <mxGeometry x="163" width="230" height="40" as="geometry" />
        </mxCell>
        <mxCell id="HwzYQzNSdAflET0h8osi-17" value="1.2. Indicadores obtenidos" style="rounded=1;whiteSpace=wrap;html=1;fontStyle=1;strokeColor=#000000;fillColor=#FF99FF;" vertex="1" parent="1">
          <mxGeometry x="-707" y="260" width="100" height="40" as="geometry" />
        </mxCell>
        <mxCell id="HwzYQzNSdAflET0h8osi-15" value="1.3. Oferta comercial definida" style="rounded=1;whiteSpace=wrap;html=1;fontStyle=1;strokeColor=#000000;fillColor=#FF99FF;" vertex="1" parent="1">
          <mxGeometry x="-587" y="260" width="110" height="40" as="geometry" />
        </mxCell>
        <mxCell id="K9VHAz8Z8y00O2l8GgqR-43" style="edgeStyle=orthogonalEdgeStyle;rounded=0;orthogonalLoop=1;jettySize=auto;html=1;entryX=0.5;entryY=0;entryDx=0;entryDy=0;exitX=0.5;exitY=1;exitDx=0;exitDy=0;" edge="1" parent="1" source="zI43d2FHKdrEC87unYx5-30" target="HwzYQzNSdAflET0h8osi-17">
          <mxGeometry relative="1" as="geometry">
            <Array as="points">
              <mxPoint x="-657" y="190" />
              <mxPoint x="-657" y="190" />
            </Array>
          </mxGeometry>
        </mxCell>
        <mxCell id="K9VHAz8Z8y00O2l8GgqR-45" style="edgeStyle=orthogonalEdgeStyle;rounded=0;orthogonalLoop=1;jettySize=auto;html=1;entryX=0.5;entryY=0;entryDx=0;entryDy=0;" edge="1" parent="1" source="zI43d2FHKdrEC87unYx5-30" target="HwzYQzNSdAflET0h8osi-15">
          <mxGeometry relative="1" as="geometry">
            <Array as="points">
              <mxPoint x="-657" y="220" />
              <mxPoint x="-532" y="220" />
            </Array>
          </mxGeometry>
        </mxCell>
        <mxCell id="K9VHAz8Z8y00O2l8GgqR-53" style="edgeStyle=orthogonalEdgeStyle;rounded=0;orthogonalLoop=1;jettySize=auto;html=1;entryX=0.5;entryY=0;entryDx=0;entryDy=0;" edge="1" parent="1" source="zI43d2FHKdrEC87unYx5-30" target="K9VHAz8Z8y00O2l8GgqR-8">
          <mxGeometry relative="1" as="geometry">
            <Array as="points">
              <mxPoint x="-657" y="220" />
              <mxPoint x="-773" y="220" />
            </Array>
          </mxGeometry>
        </mxCell>
        <mxCell id="zI43d2FHKdrEC87unYx5-30" value="1. Evaluación económica determinada" style="rounded=1;whiteSpace=wrap;html=1;fillColor=#FFFF33;strokeColor=#000000;fontStyle=1" vertex="1" parent="1">
          <mxGeometry x="-737" y="140" width="155" height="40" as="geometry" />
        </mxCell>
        <mxCell id="K9VHAz8Z8y00O2l8GgqR-94" style="edgeStyle=orthogonalEdgeStyle;rounded=0;orthogonalLoop=1;jettySize=auto;html=1;entryX=0.5;entryY=0;entryDx=0;entryDy=0;" edge="1" parent="1" target="K9VHAz8Z8y00O2l8GgqR-52">
          <mxGeometry relative="1" as="geometry">
            <mxPoint x="278.090909090909" y="210" as="sourcePoint" />
          </mxGeometry>
        </mxCell>
        <mxCell id="K9VHAz8Z8y00O2l8GgqR-98" style="edgeStyle=orthogonalEdgeStyle;rounded=0;orthogonalLoop=1;jettySize=auto;html=1;entryX=0.5;entryY=0;entryDx=0;entryDy=0;exitX=0.5;exitY=1;exitDx=0;exitDy=0;" edge="1" parent="1" source="zI43d2FHKdrEC87unYx5-31" target="zI43d2FHKdrEC87unYx5-32">
          <mxGeometry relative="1" as="geometry">
            <Array as="points">
              <mxPoint x="278" y="220" />
              <mxPoint x="-227" y="220" />
            </Array>
            <mxPoint x="278.090909090909" y="210" as="sourcePoint" />
          </mxGeometry>
        </mxCell>
        <mxCell id="K9VHAz8Z8y00O2l8GgqR-99" style="edgeStyle=orthogonalEdgeStyle;rounded=0;orthogonalLoop=1;jettySize=auto;html=1;entryX=0.5;entryY=0;entryDx=0;entryDy=0;exitX=0.5;exitY=1;exitDx=0;exitDy=0;" edge="1" parent="1" source="zI43d2FHKdrEC87unYx5-31" target="K9VHAz8Z8y00O2l8GgqR-48">
          <mxGeometry relative="1" as="geometry">
            <Array as="points">
              <mxPoint x="278" y="220" />
              <mxPoint x="1063" y="220" />
            </Array>
            <mxPoint x="278.090909090909" y="210" as="sourcePoint" />
          </mxGeometry>
        </mxCell>
        <mxCell id="zI43d2FHKdrEC87unYx5-31" value="2. Automatización implementada" style="rounded=1;whiteSpace=wrap;html=1;fillColor=#FFFF33;strokeColor=#000000;fontStyle=1" vertex="1" parent="1">
          <mxGeometry x="223" y="140" width="110" height="40" as="geometry" />
        </mxCell>
        <mxCell id="K9VHAz8Z8y00O2l8GgqR-65" style="edgeStyle=orthogonalEdgeStyle;rounded=0;orthogonalLoop=1;jettySize=auto;html=1;entryX=0.5;entryY=0;entryDx=0;entryDy=0;" edge="1" parent="1" target="K9VHAz8Z8y00O2l8GgqR-56">
          <mxGeometry relative="1" as="geometry">
            <Array as="points">
              <mxPoint x="-227" y="330" />
              <mxPoint x="-387" y="330" />
            </Array>
            <mxPoint x="-227" y="320" as="sourcePoint" />
          </mxGeometry>
        </mxCell>
        <mxCell id="K9VHAz8Z8y00O2l8GgqR-66" style="edgeStyle=orthogonalEdgeStyle;rounded=0;orthogonalLoop=1;jettySize=auto;html=1;entryX=0.5;entryY=0;entryDx=0;entryDy=0;" edge="1" parent="1" source="zI43d2FHKdrEC87unYx5-32" target="K9VHAz8Z8y00O2l8GgqR-57">
          <mxGeometry relative="1" as="geometry" />
        </mxCell>
        <mxCell id="K9VHAz8Z8y00O2l8GgqR-67" style="edgeStyle=orthogonalEdgeStyle;rounded=0;orthogonalLoop=1;jettySize=auto;html=1;entryX=0.5;entryY=0;entryDx=0;entryDy=0;" edge="1" parent="1" source="zI43d2FHKdrEC87unYx5-32" target="K9VHAz8Z8y00O2l8GgqR-64">
          <mxGeometry relative="1" as="geometry">
            <Array as="points">
              <mxPoint x="-227" y="330" />
              <mxPoint x="-67" y="330" />
            </Array>
          </mxGeometry>
        </mxCell>
        <mxCell id="zI43d2FHKdrEC87unYx5-32" value="2.1. Industria 4.0 incorporada" style="rounded=1;whiteSpace=wrap;html=1;fontStyle=1;strokeColor=#000000;fillColor=#FFFF33;" vertex="1" parent="1">
          <mxGeometry x="-282" y="260" width="110" height="40" as="geometry" />
        </mxCell>
        <mxCell id="K9VHAz8Z8y00O2l8GgqR-8" value="1.1. Presupuesto reportado" style="rounded=1;whiteSpace=wrap;html=1;fontStyle=1;strokeColor=#000000;fillColor=#FF99FF;" vertex="1" parent="1">
          <mxGeometry x="-827" y="260" width="108" height="40" as="geometry" />
        </mxCell>
        <mxCell id="K9VHAz8Z8y00O2l8GgqR-76" style="edgeStyle=orthogonalEdgeStyle;rounded=0;orthogonalLoop=1;jettySize=auto;html=1;entryX=0.5;entryY=0;entryDx=0;entryDy=0;" edge="1" parent="1" source="K9VHAz8Z8y00O2l8GgqR-48" target="K9VHAz8Z8y00O2l8GgqR-71">
          <mxGeometry relative="1" as="geometry" />
        </mxCell>
        <mxCell id="7QkryRCTY_poe_iIpccH-7" style="edgeStyle=orthogonalEdgeStyle;rounded=0;orthogonalLoop=1;jettySize=auto;html=1;entryX=0.5;entryY=0;entryDx=0;entryDy=0;" edge="1" parent="1" source="K9VHAz8Z8y00O2l8GgqR-48" target="K9VHAz8Z8y00O2l8GgqR-75">
          <mxGeometry relative="1" as="geometry">
            <Array as="points">
              <mxPoint x="1063" y="330" />
              <mxPoint x="1203" y="330" />
            </Array>
          </mxGeometry>
        </mxCell>
        <mxCell id="7QkryRCTY_poe_iIpccH-9" style="edgeStyle=orthogonalEdgeStyle;rounded=0;orthogonalLoop=1;jettySize=auto;html=1;entryX=0.5;entryY=0;entryDx=0;entryDy=0;" edge="1" parent="1" source="K9VHAz8Z8y00O2l8GgqR-48" target="K9VHAz8Z8y00O2l8GgqR-69">
          <mxGeometry relative="1" as="geometry">
            <Array as="points">
              <mxPoint x="1063" y="330" />
              <mxPoint x="913" y="330" />
            </Array>
          </mxGeometry>
        </mxCell>
        <mxCell id="K9VHAz8Z8y00O2l8GgqR-48" value="2.3. Una etapa con participación robótica" style="rounded=1;whiteSpace=wrap;html=1;fontStyle=1;strokeColor=#000000;fillColor=#FFFF33;" vertex="1" parent="1">
          <mxGeometry x="993" y="260" width="140" height="40" as="geometry" />
        </mxCell>
        <mxCell id="K9VHAz8Z8y00O2l8GgqR-51" value="2.2.1. Simulación analizada" style="rounded=1;whiteSpace=wrap;html=1;fontStyle=1;strokeColor=#000000;gradientColor=none;fillColor=#FF99FF;" vertex="1" parent="1">
          <mxGeometry x="33" y="370" width="110" height="40" as="geometry" />
        </mxCell>
        <mxCell id="eFpd0V_BJ993Bv4dlYoM-2" value="" style="edgeStyle=orthogonalEdgeStyle;rounded=0;orthogonalLoop=1;jettySize=auto;html=1;" edge="1" parent="1" source="K9VHAz8Z8y00O2l8GgqR-52" target="K9VHAz8Z8y00O2l8GgqR-54">
          <mxGeometry relative="1" as="geometry" />
        </mxCell>
        <mxCell id="eFpd0V_BJ993Bv4dlYoM-4" style="edgeStyle=orthogonalEdgeStyle;rounded=0;orthogonalLoop=1;jettySize=auto;html=1;entryX=0.5;entryY=0;entryDx=0;entryDy=0;" edge="1" parent="1" source="K9VHAz8Z8y00O2l8GgqR-52" target="K9VHAz8Z8y00O2l8GgqR-51">
          <mxGeometry relative="1" as="geometry">
            <Array as="points">
              <mxPoint x="278" y="330" />
              <mxPoint x="88" y="330" />
            </Array>
          </mxGeometry>
        </mxCell>
        <mxCell id="7QkryRCTY_poe_iIpccH-1" style="edgeStyle=orthogonalEdgeStyle;rounded=0;orthogonalLoop=1;jettySize=auto;html=1;entryX=0.5;entryY=0;entryDx=0;entryDy=0;" edge="1" parent="1" source="K9VHAz8Z8y00O2l8GgqR-52" target="K9VHAz8Z8y00O2l8GgqR-55">
          <mxGeometry relative="1" as="geometry">
            <Array as="points">
              <mxPoint x="278" y="330" />
              <mxPoint x="508" y="330" />
            </Array>
          </mxGeometry>
        </mxCell>
        <mxCell id="7QkryRCTY_poe_iIpccH-2" style="edgeStyle=orthogonalEdgeStyle;rounded=0;orthogonalLoop=1;jettySize=auto;html=1;entryX=0.5;entryY=0;entryDx=0;entryDy=0;" edge="1" parent="1" source="K9VHAz8Z8y00O2l8GgqR-52" target="3VKLXPrjO2fGtk7UREUC-1">
          <mxGeometry relative="1" as="geometry">
            <Array as="points">
              <mxPoint x="278" y="330" />
              <mxPoint x="728" y="330" />
            </Array>
          </mxGeometry>
        </mxCell>
        <mxCell id="K9VHAz8Z8y00O2l8GgqR-52" value="2.2. Gestión de producción planteada" style="rounded=1;whiteSpace=wrap;html=1;fontStyle=1;strokeColor=#000000;fillColor=#FFFF33;" vertex="1" parent="1">
          <mxGeometry x="193" y="260" width="170" height="40" as="geometry" />
        </mxCell>
        <mxCell id="K9VHAz8Z8y00O2l8GgqR-54" value="2.2.2. Aspectos pre-automatización considerados" style="rounded=1;whiteSpace=wrap;html=1;fontStyle=1;strokeColor=#000000;gradientColor=none;fillColor=#FF99FF;" vertex="1" parent="1">
          <mxGeometry x="173" y="370" width="210" height="40" as="geometry" />
        </mxCell>
        <mxCell id="K9VHAz8Z8y00O2l8GgqR-91" style="edgeStyle=orthogonalEdgeStyle;rounded=0;orthogonalLoop=1;jettySize=auto;html=1;entryX=0.5;entryY=0;entryDx=0;entryDy=0;" edge="1" parent="1" source="K9VHAz8Z8y00O2l8GgqR-55" target="K9VHAz8Z8y00O2l8GgqR-80">
          <mxGeometry relative="1" as="geometry">
            <Array as="points">
              <mxPoint x="508" y="450" />
              <mxPoint x="427" y="450" />
            </Array>
          </mxGeometry>
        </mxCell>
        <mxCell id="K9VHAz8Z8y00O2l8GgqR-92" style="edgeStyle=orthogonalEdgeStyle;rounded=0;orthogonalLoop=1;jettySize=auto;html=1;entryX=0.5;entryY=0;entryDx=0;entryDy=0;" edge="1" parent="1" source="K9VHAz8Z8y00O2l8GgqR-55" target="K9VHAz8Z8y00O2l8GgqR-86">
          <mxGeometry relative="1" as="geometry">
            <Array as="points">
              <mxPoint x="508" y="450" />
              <mxPoint x="597" y="450" />
            </Array>
          </mxGeometry>
        </mxCell>
        <mxCell id="K9VHAz8Z8y00O2l8GgqR-55" value="2.2.3. Comunicación con el sistema MES propuesta" style="rounded=1;whiteSpace=wrap;html=1;fontStyle=1;strokeColor=#000000;fillColor=#FFFF33;" vertex="1" parent="1">
          <mxGeometry x="403" y="370" width="210" height="40" as="geometry" />
        </mxCell>
        <mxCell id="K9VHAz8Z8y00O2l8GgqR-56" value="2.1.1. Diagramas P&amp;amp;ID de las etapas creados" style="rounded=1;whiteSpace=wrap;html=1;fontStyle=1;strokeColor=#000000;fillColor=#FF99FF;" vertex="1" parent="1">
          <mxGeometry x="-457" y="370" width="140" height="40" as="geometry" />
        </mxCell>
        <mxCell id="K9VHAz8Z8y00O2l8GgqR-61" style="edgeStyle=orthogonalEdgeStyle;rounded=0;orthogonalLoop=1;jettySize=auto;html=1;entryX=0.5;entryY=0;entryDx=0;entryDy=0;" edge="1" parent="1" source="K9VHAz8Z8y00O2l8GgqR-57" target="K9VHAz8Z8y00O2l8GgqR-58">
          <mxGeometry relative="1" as="geometry" />
        </mxCell>
        <mxCell id="K9VHAz8Z8y00O2l8GgqR-57" value="2.1.2. Arquitectura de control definida" style="rounded=1;whiteSpace=wrap;html=1;fontStyle=1;strokeColor=#000000;fillColor=#FFFF33;" vertex="1" parent="1">
          <mxGeometry x="-297" y="370" width="140" height="40" as="geometry" />
        </mxCell>
        <mxCell id="K9VHAz8Z8y00O2l8GgqR-58" value="2.1.2.1. Comunicaciones utilizadas descritas" style="rounded=1;whiteSpace=wrap;html=1;fontStyle=1;strokeColor=#000000;fillColor=#FF99FF;" vertex="1" parent="1">
          <mxGeometry x="-302" y="480" width="150" height="40" as="geometry" />
        </mxCell>
        <mxCell id="K9VHAz8Z8y00O2l8GgqR-64" value="2.1.3. Tecnologías 4.0 determinadas" style="rounded=1;whiteSpace=wrap;html=1;fontStyle=1;strokeColor=#000000;fillColor=#FF99FF;" vertex="1" parent="1">
          <mxGeometry x="-137" y="370" width="140" height="40" as="geometry" />
        </mxCell>
        <mxCell id="K9VHAz8Z8y00O2l8GgqR-69" value="2.3.1. Robotización justificada" style="rounded=1;whiteSpace=wrap;html=1;fontStyle=1;strokeColor=#000000;fillColor=#FF99FF;" vertex="1" parent="1">
          <mxGeometry x="853" y="370" width="120" height="40" as="geometry" />
        </mxCell>
        <mxCell id="K9VHAz8Z8y00O2l8GgqR-74" style="edgeStyle=orthogonalEdgeStyle;rounded=0;orthogonalLoop=1;jettySize=auto;html=1;entryX=0.5;entryY=0;entryDx=0;entryDy=0;" edge="1" parent="1" source="K9VHAz8Z8y00O2l8GgqR-71" target="K9VHAz8Z8y00O2l8GgqR-73">
          <mxGeometry relative="1" as="geometry" />
        </mxCell>
        <mxCell id="K9VHAz8Z8y00O2l8GgqR-71" value="2.3.2. Celda robotizada diseñada" style="rounded=1;whiteSpace=wrap;html=1;fontStyle=1;strokeColor=#000000;fillColor=#FFFF33;" vertex="1" parent="1">
          <mxGeometry x="993" y="370" width="140" height="40" as="geometry" />
        </mxCell>
        <mxCell id="K9VHAz8Z8y00O2l8GgqR-73" value="2.3.2.1. Modelado en RobotStudio realizado" style="rounded=1;whiteSpace=wrap;html=1;fontStyle=1;strokeColor=#000000;fillColor=#FF99FF;" vertex="1" parent="1">
          <mxGeometry x="993" y="480" width="140" height="40" as="geometry" />
        </mxCell>
        <mxCell id="K9VHAz8Z8y00O2l8GgqR-75" value="2.3.3. Riesgos identificados" style="rounded=1;whiteSpace=wrap;html=1;fontStyle=1;strokeColor=#000000;fillColor=#FF99FF;" vertex="1" parent="1">
          <mxGeometry x="1153" y="370" width="100" height="40" as="geometry" />
        </mxCell>
        <mxCell id="eFpd0V_BJ993Bv4dlYoM-20" value="3&lt;span style=&quot;background-color: initial;&quot;&gt;. Digital Factory&amp;nbsp; incorporado&lt;/span&gt;" style="rounded=1;whiteSpace=wrap;html=1;fillColor=#FF99FF;strokeColor=#36393d;fontStyle=1;" vertex="1" parent="1">
          <mxGeometry x="1273" y="140" width="110" height="40" as="geometry" />
        </mxCell>
        <mxCell id="K9VHAz8Z8y00O2l8GgqR-80" value="2.2.3.1. Sistema SCADA incorporado" style="rounded=1;whiteSpace=wrap;html=1;fontStyle=1;strokeColor=#000000;fillColor=#FF99FF;" vertex="1" parent="1">
          <mxGeometry x="353" y="480" width="149" height="40" as="geometry" />
        </mxCell>
        <mxCell id="K9VHAz8Z8y00O2l8GgqR-86" value="2.2.3.2. Controladores PLC&lt;span style=&quot;white-space: pre;&quot;&gt;&#x9;&lt;/span&gt;implementados" style="rounded=1;whiteSpace=wrap;html=1;fontStyle=1;strokeColor=#000000;fillColor=#FF99FF;" vertex="1" parent="1">
          <mxGeometry x="523" y="480" width="149" height="40" as="geometry" />
        </mxCell>
        <mxCell id="3VKLXPrjO2fGtk7UREUC-1" value="2.2.4. Selección de maquinaria y equipos" style="rounded=1;whiteSpace=wrap;html=1;fontStyle=1;strokeColor=#000000;gradientColor=none;fillColor=#FF99FF;" vertex="1" parent="1">
          <mxGeometry x="623" y="370" width="210" height="40" as="geometry" />
        </mxCell>
        <mxCell id="7QkryRCTY_poe_iIpccH-20" value="1. Planeación del proyecto desarrollada" style="rounded=1;whiteSpace=wrap;html=1;fillColor=#FFFF33;strokeColor=#000000;fontStyle=1;arcSize=24;" vertex="1" parent="1">
          <mxGeometry x="-1160" y="140" width="155" height="40" as="geometry" />
        </mxCell>
        <mxCell id="7QkryRCTY_poe_iIpccH-23" value="1.2. Planta identificada" style="rounded=1;whiteSpace=wrap;html=1;fontStyle=1;strokeColor=#000000;fillColor=#FF99FF;" vertex="1" parent="1">
          <mxGeometry x="-1290" y="260" width="108" height="40" as="geometry" />
        </mxCell>
        <mxCell id="7QkryRCTY_poe_iIpccH-25" value="1.2. Cronograma" style="rounded=1;whiteSpace=wrap;html=1;fontStyle=1;strokeColor=#000000;fillColor=#FF99FF;" vertex="1" parent="1">
          <mxGeometry x="-1150" y="260" width="108" height="40" as="geometry" />
        </mxCell>
      </root>
    </mxGraphModel>
  </diagram>
</mxfile>
